<svg id="visual" viewBox="0 0 900 600" width="900" height="600" xmlns="http://www.w3.org/2000/svg" xmlns:xlink="http://www.w3.org/1999/xlink" version="1.1"><rect x="0" y="0" width="900" height="600" fill="#001220"></rect><path d="M0 330L21.5 349.5C43 369 86 408 128.8 422.5C171.7 437 214.3 427 257.2 419.3C300 411.7 343 406.3 385.8 399C428.7 391.7 471.3 382.3 514.2 370.2C557 358 600 343 642.8 340C685.7 337 728.3 346 771.2 357C814 368 857 381 878.5 387.5L900 394L900 0L878.5 0C857 0 814 0 771.2 0C728.3 0 685.7 0 642.8 0C600 0 557 0 514.2 0C471.3 0 428.7 0 385.8 0C343 0 300 0 257.2 0C214.3 0 171.7 0 128.8 0C86 0 43 0 21.5 0L0 0Z" fill="#223d40"></path><path d="M0 396L21.5 381.3C43 366.7 86 337.3 128.8 320.8C171.7 304.3 214.3 300.7 257.2 297.3C300 294 343 291 385.8 295.7C428.7 300.3 471.3 312.7 514.2 332C557 351.3 600 377.7 642.8 380.5C685.7 383.3 728.3 362.7 771.2 363.7C814 364.7 857 387.3 878.5 398.7L900 410L900 0L878.5 0C857 0 814 0 771.2 0C728.3 0 685.7 0 642.8 0C600 0 557 0 514.2 0C471.3 0 428.7 0 385.8 0C343 0 300 0 257.2 0C214.3 0 171.7 0 128.8 0C86 0 43 0 21.5 0L0 0Z" fill="#064c5c"></path><path d="M0 356L21.5 334C43 312 86 268 128.8 262.8C171.7 257.7 214.3 291.3 257.2 305C300 318.7 343 312.3 385.8 313.7C428.7 315 471.3 324 514.2 313.7C557 303.3 600 273.7 642.8 265.8C685.7 258 728.3 272 771.2 283.2C814 294.3 857 302.7 878.5 306.8L900 311L900 0L878.5 0C857 0 814 0 771.2 0C728.3 0 685.7 0 642.8 0C600 0 557 0 514.2 0C471.3 0 428.7 0 385.8 0C343 0 300 0 257.2 0C214.3 0 171.7 0 128.8 0C86 0 43 0 21.5 0L0 0Z" fill="#00587d"></path><path d="M0 255L21.5 244.5C43 234 86 213 128.8 210.7C171.7 208.3 214.3 224.7 257.2 236.7C300 248.7 343 256.3 385.8 254.2C428.7 252 471.3 240 514.2 235.2C557 230.3 600 232.7 642.8 232.5C685.7 232.3 728.3 229.7 771.2 239C814 248.3 857 269.7 878.5 280.3L900 291L900 0L878.5 0C857 0 814 0 771.2 0C728.3 0 685.7 0 642.8 0C600 0 557 0 514.2 0C471.3 0 428.7 0 385.8 0C343 0 300 0 257.2 0C214.3 0 171.7 0 128.8 0C86 0 43 0 21.5 0L0 0Z" fill="#00629e"></path><path d="M0 228L21.5 228.8C43 229.7 86 231.3 128.8 218.8C171.7 206.3 214.3 179.7 257.2 172.8C300 166 343 179 385.8 190.7C428.7 202.3 471.3 212.7 514.2 203.3C557 194 600 165 642.8 154.8C685.7 144.7 728.3 153.3 771.2 163.2C814 173 857 184 878.5 189.5L900 195L900 0L878.5 0C857 0 814 0 771.2 0C728.3 0 685.7 0 642.8 0C600 0 557 0 514.2 0C471.3 0 428.7 0 385.8 0C343 0 300 0 257.2 0C214.3 0 171.7 0 128.8 0C86 0 43 0 21.5 0L0 0Z" fill="#0069bf"></path><path d="M0 155L21.5 155.2C43 155.3 86 155.7 128.8 158.7C171.7 161.7 214.3 167.3 257.2 169.5C300 171.7 343 170.3 385.8 159.5C428.7 148.7 471.3 128.3 514.2 114.7C557 101 600 94 642.8 96C685.7 98 728.3 109 771.2 119.8C814 130.7 857 141.3 878.5 146.7L900 152L900 0L878.5 0C857 0 814 0 771.2 0C728.3 0 685.7 0 642.8 0C600 0 557 0 514.2 0C471.3 0 428.7 0 385.8 0C343 0 300 0 257.2 0C214.3 0 171.7 0 128.8 0C86 0 43 0 21.5 0L0 0Z" fill="#006de0"></path><path d="M0 84L21.5 87.8C43 91.7 86 99.3 128.8 98.5C171.7 97.7 214.3 88.3 257.2 87.2C300 86 343 93 385.8 90.3C428.7 87.7 471.3 75.3 514.2 68.7C557 62 600 61 642.8 67.7C685.7 74.3 728.3 88.7 771.2 96C814 103.3 857 103.7 878.5 103.8L900 104L900 0L878.5 0C857 0 814 0 771.2 0C728.3 0 685.7 0 642.8 0C600 0 557 0 514.2 0C471.3 0 428.7 0 385.8 0C343 0 300 0 257.2 0C214.3 0 171.7 0 128.8 0C86 0 43 0 21.5 0L0 0Z" fill="#0d6efd"></path></svg>